<?xml version="1.0" standalone="no"?>
<!DOCTYPE svg PUBLIC "-//W3C//DTD SVG 20010904//EN"
 "http://www.w3.org/TR/2001/REC-SVG-20010904/DTD/svg10.dtd">
<svg version="1.0" xmlns="http://www.w3.org/2000/svg"
 width="512.000000pt" height="512.000000pt" viewBox="0 0 512.000000 512.000000"
 preserveAspectRatio="xMidYMid meet">
<metadata>
Created by potrace 1.11, written by Peter Selinger 2001-2013
</metadata>
<g transform="translate(0.000000,512.000000) scale(0.100000,-0.100000)"
fill="#000000" stroke="none">
<path d="M689 4856 c-2 -2 -20 -6 -40 -9 -66 -8 -182 -72 -243 -133 -64 -64
-121 -169 -136 -253 -13 -72 -14 -3713 0 -3796 14 -86 69 -192 135 -258 65
-65 171 -122 255 -137 64 -12 3790 -9 3829 2 40 12 146 64 171 84 94 76 164
184 186 289 11 48 13 432 14 1911 0 1192 -4 1870 -10 1905 -35 187 -202 354
-389 389 -51 9 -3762 16 -3772 6z"/>
</g>
</svg>
